<svg xmlns="http://www.w3.org/2000/svg" viewBox="0 0 2067.35 1879.14"><defs><style>.cls-2{fill:#bd461c}.cls-3{fill:#fe7e04}.cls-4{fill:#e22727}.cls-5{fill:#ec5422}.cls-6{fill:#fede00}.cls-8{fill:#f9cb08}</style></defs><path d="M224.64 1139.51c11.48 7 24.37 9.53 37.39 11 7.47.82 7.07 3.1 2.94 7.63-.84.92-1.51 2-2.41 2.87-4.19 4-3.95 13.28-10.26 13-5.08-.21-9.73-6.22-15-8.93-4.72-2.45-8.17-7.94-14.6-6.62-1.11-1.7-7.41-1.79-.93-5.77 3.95-2.44 5.65-7.98 2.87-13.18z" fill="#3e2457"/><path class="cls-2" d="M222.74 1158.43c2.38 1.5 4.65 3.21 7.15 4.46 15.38 7.69 26.71 18.22 26.5 37-23.39-.53-34.18-13.89-33.65-41.46z"/><path class="cls-3" d="M261 1319.06c6.87-43.76 46.58-83.51 104.68-78.27 34.92 3.15 68 12.73 102.32 26.6-5.48-8.86-10.39-15.75-14.21-23.19-15.71-30.55-8.55-59.34 19.76-78.84 7.95-5.48 16.74-9.73 25.15-14.54-2.31-4.89 1.59-5.51 4.62-6.73 29.8-12 61-9 91.72-7 13.88.89 27.72 7 41.35 11.44 4.5 6.61 12 9.65 17.83 14.66 19.1 16.37 30.77 36.61 34.15 61.74 1.67 12.43 2.6 12.17 15.21 10.55 37.6-4.85 74.33-1.93 106.2 20.49 19.78 13.91 38.27 30.17 48.71 53.17 1.46 3.22 4.08 5.49 6 8.33 1.47 4.37 1.33 9.1 3.25 13.39 1.57 3.53.06 6.56-2.29 9.26 0 7.79 1.88 15.46.87 23.36-2.87 22.62-15.21 37.71-36 46.35-3.14 1.31-6.32 2.49-11.61 4.57 15.71 1.73 29.43 2.93 42.78 6.36 17.81 4.57 34.07 12.17 48.37 23.85 30.83 25.19 38.42 68.78 18 103.37-1.58 2.67-3 5.43-4.53 8.15-1.49 11.28-10.72 16.65-18.48 22.35-19 14-41.08 18.93-64.51 19.85-26.64 1-52-4.13-73.73-11.83 13.77 6.61 28.23 18.27 43.72 28.29 3.21 2.07 6.5 5.18 3.7 9.25-2.61 3.78-6.63 2.5-10.13.51-9.49-5.4-18.16-12.08-28.28-18.78 6.39 16.29 7.41 31.39.52 46.67-4.68 10.38-12.19 17.89-21.19 24.5-37.84 27.78-115.6 27.86-153.26-12.19a84 84 0 0 1-17.14-26.75c-4.57-11.55-4.92-11.83-15.51-4.37-20.66 14.57-42.87 25.73-67.32 32.49-18.55 5.13-37.34 6.83-56.56 7.65-34.19 1.46-65.93-6.4-95.85-21.84-31-16-55.49-38.94-68-72.22-15.35-40.76-7.78-79.31 13.14-116.31 6.82-12.06 15.08-23 23.15-34.17 6-8.26 6.05-9-3.23-13.63-22.1-11-38.81-27.29-49.5-49.54-4.57-9.51-9.26-18.86-4.66-30.26 1.97-4.95-.35-11.16.79-16.74zm1690.94-148.46c6.81 13.56 10.46 27.83 9.75 43.09 3.2 3.62 3.3 7.64 2.5 12.28a115.88 115.88 0 0 1-13.81 38.75c-20.11 34.8-46.44 62.84-85 77.44-14.34 5.43-27.8 6.47-54.73 3.73 7.81 14.88 12.46 30.26 9.63 47.08-4 23.69-15.91 42.64-35.33 56.49-5.52 3.94-8.44 8.67-10.69 14.58-4.84 12.73-11.63 15.56-24.09 9.84-4-1.86-7.72-1.59-11.82-.77-17.44 3.5-34.72 3.93-51.8-2.39-28.29-10.47-45.42-31.52-55.23-58.93-6.06-16.93-5.7-14.28-17-3.65-23.5 22.17-50 37.26-83.85 36-25.1-1-46-11.08-64.58-26.81-18-15.25-33.87-32.45-44.3-54-10.46-13.43-13.87-29.81-19.17-45.42-4.15-12.21-2.8-25.4-7.12-37.55a11 11 0 0 1-.41-3.72c.1-14.06 3-27.69 6.37-41.23 4.81-10.54 8.69-21.65 17.61-29.77a26.65 26.65 0 0 1 1.72-2.16c11-12.69 24.37-21.2 33.94-22.31-10.39.31-27.41-3.33-42.75-12.6-15.79-9.55-17.58-26.83-5.06-40.79 14.72-16.41 33.82-25.64 54.13-32.58a208.51 208.51 0 0 1 28.93-8.13c6.88-1.29 7.92-3.84 3.32-8.59-20.37-21-25.68-46.49-22.69-74.57 8.64-17.11 21.13-30.53 37.31-41a77.28 77.28 0 0 1 22.14-9.65c22.58-6 45-7.08 68 .29 13 4.17 23.89 11.26 35.36 17.79 4.23 10 14.55 13 22.48 21 3.33-16.19 4.46-31.37 9.43-45.74 19.73-57 57.4-94.81 118-103.6 57.2-8.29 109.47 6.69 153.1 45.56 25.16 22.41 36.12 55 17.3 93.86.07 13.56-9.78 21.33-18.33 29.12a128.48 128.48 0 0 1-41.47 25.23 37 37 0 0 1-11.17 1.95c18.29-2.31 38.13 14.31 39.7 34.82 1.93 25.17-12.35 46.67-37.58 57.18 24 2.45 45.5 11.53 63.31 28.9a12.13 12.13 0 0 1 3.95 10.98zM987 403.48a42.93 42.93 0 0 1-3.08-20.69 25.89 25.89 0 0 0-4.43-12c-4.13-5.63-2-9.22 2.59-12.58 7.68-5.62 13.38-13 19.14-20.48 7.34-9.48 17.57-15.81 26.9-24.12-19.23.18-37.89.6-56.15-5.28-32.26-10.38-57.58-29.48-76.25-57.7-3.44-5.2-4.07-10.79-4.21-16.66-14.49-33.15-19.78-66.89-8.07-102.25 14.17-42.81 54.1-62.82 95.7-58.72 31.12 3.1 59.29 14.56 87.3 28.14-7.8-9.06-15.83-17.82-21.45-28.36-6.32-11.84-10.57-24.23-8.1-37.8 3.49-19.13 19.57-30.9 44.07-34.22 36.04-4.85 61.11 13.24 82.47 38.95a189.14 189.14 0 0 1 24.28 37.89c2.35 4.81 3.92 7 9.24 2.47 59.14-50.63 139.39-48.31 202.88-8.77 26.21 16.32 47.57 37.38 62.18 65 13.39 25.27 16.42 51.5 8.52 79 2.3 15.82-7.66 26.28-16.67 36.82-17.24 20.14-39.55 33.39-63.22 44.46-10.59 5-10.77 4.91-2.25 12.24 17.54 15.1 30 32.76 28.14 57.42-.28 3.7 1.54 6.4 3.63 9.31 4.08 5.68 2.91 9.1-3.66 9.51-5.16.33-7.68 2.87-10.5 6.51-30 38.66-87.54 50.58-130.42 27-5.19-2.85-8.91-4.23-11.33 3.19-10.86 33.31-36 50.25-68.55 57.13-61.77 13.08-119.81 2.53-174-29.76-7.63-4.55-13.57-11-19.94-16.92a123.43 123.43 0 0 1-10.18-10.69c-4.49-5.22-5.63-11.39-4.58-18.04zM167.21 888.82c-64.58-19.75-94.58-68.38-107.49-130.38-4.95-23.76-1.16-47.22 10.25-69-.27-4.06-.4-8.09 2.47-11.47 13.33-15.63 28.45-28.83 47.89-35.87a207.18 207.18 0 0 1-73.68-32.28c-5.38-3.69-9.58-7.91-11.11-14.38C14.09 575.5-.78 552.46 0 521.81c1.06-40.08 32.5-75.06 72.14-80.88 34.19-5 67.37.48 100.29 8.72 26.61 6.66 53.08 13.93 81.33 21.39-5.27-9.27-9.68-17-14.06-24.74a100.4 100.4 0 0 1-13.05-50.3c.07-27.3 21-46.82 51.61-47 50.17-.29 87.15 24.46 113.52 65.21 8.08 12.49 14.27 17.7 30.61 16.51 47.81-3.48 83 27.22 91.07 75 1.73 10.28 1.73 20.55 2.26 30.85 3.49 4.5 4.26 9.54 3.35 15.08-5.9 36-21.62 66.51-51.45 88.43-20.75 15.24-44.73 21.84-70.22 23.34-5 .29-10-.32-15.78.24 1.69 3.76 4.65 6 7.22 8.36 13.91 12.8 21.57 28.85 25.31 47.11 1.41 6.9 1.27 14.26 7 19.88 2.49 2.44 1.35 6.25-1.16 8.45-4.38 3.83-5.29 8.91-6.54 14.13-9.21 38.6-30.1 69.62-61.18 94-4.11 3.23-8.38 5.45-13.77 4.4l-22.4 9.9c-7.74 8.22-33.77 11-42.84 4.61-3.77-2.65-9.47-1.78-11.92-7.21-1.25-2.76-3.91-4.86-3.29-8.35 1.16-3.44 3.87-5.47 7.17-4.59 9.9 2.63 19.83.84 29.74 1.09 2.36.06 4.31.26 5.83-1.7 2.65-3.44 5.95-3.46 9.79-1.33-2.07-5.3-4.94-1.23-7.19-1.14-1.52.06-3.17 2.2-4 3.63-2.75 4.68-4-7.84-7.68-.28-1.81 3.72-7.85-.83-12.19.95-2.28.93-3.94-2.4-4-5.2 0-5.26-.24-10.53.09-14.09-.86 2.65.1 7.11-.1 11.49-.14 3.15.31 6.67-3.61 7.74-4.5 1.23-6-2.19-7.22-5.53a4 4 0 0 0-2.15-2.42c-3.67 1.3-3.1 6.44-6.38 8.26-7.75 7.83-9.87 7.63-13.82-1.28a4.07 4.07 0 0 1-2.74-5.25c-1.59 3.3 2 4.47 3.79 6.6.11 4.83-3.43 6-6.92 5.61-5.14-.52-7.91 2-10.89 5.59-10.64 12.94-23.79 22-40.65 25-6.31 1.12-12.42 1.22-17.71-3.27z"/><path class="cls-4" d="M1406.48 1236.59c-1.31 1.31-3 2.41-3 4.52.23 15.36-4.59 30-1.94 46.16 3.89 23.68 9.81 46.14 20.27 67.57 1.19 2.44 2.35 4.88 3.53 7.33a34.85 34.85 0 0 1-5.14 12.81 61 61 0 0 0-9.84 45.39c.84 5.08.81 10-3.34 13.85-30.83 30.08-48.06 67.28-57 108.82-6.1 3.74-10.55 0-15.16-3.29-14.49-10.24-30.42-17.13-48.17-18.6-8.43-.7-16.15-4.23-24.87-4-19.84.45-39 4.8-58.08 9.22-10.2 2.36-17.58 2.61-25.76-6.27-12.46-13.53-29.44-20.55-47.17-25.71-15.2-4.42-30-4.71-45.13-.11-17.91 5.43-23.9 17-17.28 34.37 1.2 3.14 3.39 6.13 2.46 9.84-8 14.12-17.07 27.72-20.78 43.88a7.9 7.9 0 0 1-5 5.21c-7.87 2.35-14.64 6.54-21.41 11.09-3.8 2.56-8.76 5.56-13.77 1.34-2.36-28.65-3-57.42-7.33-85.92-6.12-40.63-14.67-80.41-35.53-116.54-22.61-39.14-55.81-59.27-101.53-57.43-1.63-7.41-5.47-14.35-4.76-22.26-2.29-4.42-.08-7.94 2.68-10.95 11.08-12.11 20.05-26.11 32.87-36.66 3.35-1.77 4.95-4.81 6-8.28 3.86-3.15 5.89-8.8 12-8.87 13.1 3.93 26.69 1.18 40.05 3.23 51.75 7.91 97.6 27.9 136.56 63.28 36.15 32.83 60.8 73.32 79.48 117.87 1.33 3.17 3 6.2 4 9.52 1.49 7.66-5.12 13-5.87 20.11a3.58 3.58 0 0 1-4.34 2.7c-2.49-.58-3.95-2.26-3.56-4.74 1.81-11.47-8.37-12.6-14.72-16.3-4.87-2.84-8.77 1-11.2 5.58-3.09 5.82-.53 10.4 3.72 14.05 4.45 3.83 7.25-1 10.57-2.8a2.4 2.4 0 0 0 .67-.65c2.75-2.81 2.85-9.24 7.52-8.67 5.7.69 2.47 6.64 3.51 10.17.85 2.89 3.41 4.78 5.56 3 4.41-3.68 8.25-1.11 12.36-.18 4.75 4.49 4 10.95 5.82 16.45 1.1 1.43.63 3.23 1.13 4.81-.49-1.44.08-3.1-.92-4.45-.22-5.55-5.39-10.8-1-16.61 2.26-1 4.34-2.46 7.08-1.8 12.57 3 24.83 1.35 36.77-3 3.23-1.18 5.68-.41 8.18 1.95.17-4.79-2.62-4.68-5-3.55-6.9 3.34-14.52 3.17-21.65 5-7.3 1.92-8.29-1.38-8.25-7v-8.45c0 4 .5 8-.18 11.86-.82 4.68-6.33 6.52-8 2.68-3.18-7.22-10.72-9.28-14.86-15-7.7-50.57-5.48-100.59 10.39-149.34 11.73-36 32.6-65.58 67.36-83.11 24.06-12.13 49.77-15.77 76.62-13.06 20.72 2.09 40.78 6 59.43 15.71 1.66.86 3.65.83 5.53 1 7.14 1.49 7.22 8.11 9.42 13.23z"/><path class="cls-2" d="M261 1319.06c-2 26 5.73 48.7 23.17 68.18 11.5 12.86 25.49 22.13 41.17 28.84 6.27 2.69 6.23 4.69 1.88 9.64-22.58 25.71-41 53.89-47.19 88.27-8.37 46.4 6.72 84.79 42.52 114.56 34.83 29 75.71 41.14 120.9 40.92 49.52-.23 93.22-16.05 132-46.3 4.52-3.53 8.14-6.15 10.11 2.41 9.87 43 51.37 63.33 87.5 65.79 22.38 1.53 44.48-.14 65.17-10.09 18.16-8.73 32.87-20.45 37.37-41.61 2.63-12.36-.6-23.52-5.51-34.55-1.21-2.72-3.75-5-2.84-9.37 16 7.42 28.69 19.69 44.39 26.84-19.1-16.22-42.71-26.32-60.31-45 60.93 19.82 120.66 32.37 172-21.5 10.24 11.35 14.42 25.48 16.33 40 3.83 29.1-1.44 55.76-23.89 77.06-3.56 3.37-4.51 9.73-11.36 8.75-.9-.88-1.6-2.35-2.64-2.61-11.26-2.87-11.26-2.82-10.69-14 .08-1.53.63-3 .18-4.75-6.35 3.91-13.32 6.65-15.81 15-1 3.24-5.32 5.6-9.19 5.26-3.64-.32-3.25-4-3.47-7.07-2.28 2.62-2.32 8-7.4 6.57-4.92-1.36-2.82-5.33-2.67-8.62.13-2.67 1-6.23-2.73-7.08s-3.33 2.66-4 4.92c-2.89 9.33-7.92 13.25-14 11s-8.43-10-5.38-18.43a11.14 11.14 0 0 1 1.88-3.45c-1.86 4.28-5.26 8.63-2.7 14.77 1.91 4.56 4.49 7.85 9.45 7.57 4.52-.25 7.91-2.41 9.75-7.38 1.07-2.9-.53-9.38 5.06-8.14 4.63 1 2.58 6.19 2.13 9.8-.31 2.51 1.16 5.55 3 4.86 5.2-2 10.12 2.58 15.25-.36 10.1-5.78 19.67-3.19 28.79 2.73-2.84 3.48-8.33 4.87-8.17 10.74a2.35 2.35 0 0 1-3.24 2.37c-13.79-5-26.72 2.93-40.31 2.81-7.29-.06-17.44-3.19-22.19 3.19-4.17 5.59.71 14.37.42 21.89-1.44 37.76-21.52 62.24-54.61 77.39-27.53 12.61-56.52 16-86.75 15.39-33.45-.67-64.68-8.78-93.41-24.58-30-16.49-52.85-40-58.91-75.85-1.9-11.27-2.42-11.72-12.47-5.66-37 22.31-76.19 39.66-118.83 47.35-58.33 10.52-112.35.94-157.72-39.94-10.54-9.5-21.16-19.63-27-33.28 6.13-4.43 13.66-7.7 13.73-17.08a2.43 2.43 0 0 1 2.56-2.27 3.53 3.53 0 0 1 3.32 2.8c.8 2.47.17 4.93-.27 7.4s.85 5.55 2.83 5c5.37-1.6 10.55 2.38 16-.67 7.11-4 14.57-3.65 22.45-.68 5 1.9 11.15 3.55 16.41-.59 1-.89-.87-1.57 0-.7.24.23 0 .4-.46.82-3.91 3.55-6.58 3.2-7.67-2.36-1.91 3.27-4.35 5.14-8 2.47-2.53-1.87-2.56-4.84-2.8-7.66-.29-3.39.46-6.73.53-10.44-6.31 4.21-13.59 6.56-15.92 15.09-.93 3.41-5.37 5.46-9.1 5.47s-3.43-3.69-3.79-6.78c-2.25 2.54-2.5 8-7.66 6.14-4.76-1.7-2.31-5.66-2.29-8.87 0-2.69.85-6.26-3.08-6.79-3.71-.49-3 3.13-3.8 5.27-1.12 2.85-.85 6.51-3.75 8.35s-6.34 5.21-10.17 2.49c-5.54-3.94-7.21-10-6.6-16.49.19-2 1.7-4 3.19-5.65.92-.85-.27-1.56.64-.69 0 0-.2.21-.59.64-1.83 2-3.27 4.93-6.83 3-4.92-2.87-5.42-8.24-7-12.86-15.23-45.66-14.71-90.35 8.71-133.49 9-16.49 21.35-30 36.26-41.29 6-4.53 7.67-7.17-1.1-10.8a90.68 90.68 0 0 1-26-16.63c-24.38-22-18.77-48.67-2.79-69.7 9.78-12.87 21.12-24.86 35.75-32.7 7.65-4.1 12.14-9.37 10.75-18.58-.16-2.11 1.02-4.32 1.51-6.42zm743.25-889.29c36 32 79.45 44.5 126.19 49.11 26.26 2.59 51.9.43 76.8-8 28.93-9.75 49.29-28 54.51-59.59 1.23-7.42 4.15-4 7.33-2 34.67 22.11 70 21.83 105.9 3.16 11.86-6.18 22.17-14.48 28.7-26.24 4-7.21 7.66-11.15 16.44-4.77-10-4.69-8.69-12.09-8.4-20.42.74-21.23-11.22-36.4-26.71-49.21-4.52-3.74-9.35-7.11-14.79-11.21 42.67-18.57 82.74-39 100.32-85.44 1.45 6.94 8 7.22 12.81 9.61 22 10.85 39.27 25.72 43.3 51.58 4.94 31.73-12.47 66-41.3 81-6.59 3.42-12.92 7.86-20.74 8.36-6 .39-6.93 3.24-4.1 8.05 11.23 19.09 9.5 38.86 3.35 59-4.5 14.72-16.71 23.82-25.35 35.52-9.67 13.11-22 23.25-36 31.36-2.74 1.59-6.65 8-10.15.2-.12-.28-1.79 0-2.65.22-20.49 6.06-41 .41-61.53.53-7.06 0-15-2.34-21.22 3.68-28.71 23.86-41.79 58.43-60.57 89-7.31 11.91-12.89 24.92-19.07 37.53-21 43.73-37.92 89.14-54.88 134.52-11.08 33.91-22.11 67.83-32.58 101.94-1.93 6.28-3.36 12.72-5.79 18.84-1.28 3.22-2.78 6.69-6.9 6.78-4.54.1-6.51-3.38-7.74-7-4.89-14.58-7.91-29.6-10.6-44.71-1.36-7.66-1.75-15.49-4-24.23-8.39 15-15.69 29.38-21.24 44.63a137.71 137.71 0 0 1-5.07 13.13c-1.92 4-2 10.92-7.91 10-6.4-1-6-7.74-6.5-13-1-10.9.39-21.92-1.66-32.79 3.76-20.12 3.36-40.47 2.77-60.73-1.55-52.36-1.84-104.77-5.63-157.05-.79-10.87-3.83-21.55-2.85-32.57-2.11-8.08-6.64-14.46-12.84-20.1a149.16 149.16 0 0 1-46.7-82.43c-3.14-15.52-2-31.72-.08-47.56.48-3.76 1.96-8.08 7.13-8.7z"/><path class="cls-5" d="M1009.86 1600c4.5-.52 8.29-3.13 11.44-5.74 8-6.63 17.88-9.09 26.91-13.4 2.71-4.12 6.58-6.37 11.33-7.56 11.54-2.89 23.28-4 35-4.73-7.86-6.18-15.7-13.08-24.19-19-4.74-3.33-5.33-6.17-2.46-10.56-1.4-3.1-2.45-6.42-4.26-9.25-9.65-15.14 1-36.21 18.41-39.51 7.59-1.44 14.81-4 22.84-3.89 31.86.43 59 11.21 80.55 35 3.38 3.74 7.27 3.35 11.18 2.19 22.73-6.75 45.91-11.61 69.62-9.95 26.5 1.86 52.8 5.62 74.09 24.24 2.7 2.36 6.44 3.52 9.69 5.24 4.35 9.57 11.93 17.15 15.67 27.26 6.93 18.72 6 37.87 5 57.14 3.82 24.56-6.64 45-18.82 64.9-7.17 11.69-16.61 21.27-29.1 27.22-16.08 7.67-32 6.34-45.76-.56 13 20.32 20.5 44.11 13.46 70.06-4.73 17.46-18.62 28-35 34.25-22.84 8.76-46.45 11.16-71 8.78-21.39-2.08-42-6-62-13.83-5.5-2.14-10-5.13-12.7-10.43-9.54-7.33-20.38-13.21-26.91-23.93-11.36-6.74-14.45-20-8.15-36.14 2.15-5.53 4.76-10.91 8.8-15.08-26.08 7.41-51.54 8.26-75.11-8.54-4.26-3-7.81-6.29-7.74-12-6.77-11.91-13.94-23.47-15.72-37.65-3.1-24.68 2.76-46.37 19.24-65.1 2.47-2.82 5.39-5.36 5.69-9.43z"/><path class="cls-4" d="M1004.25 429.77c-10.57 42.58-.92 80.86 24.78 115.63a134.69 134.69 0 0 0 23 24.35c4.83 3.95 7.84 8.74 7.94 15.11-7.08 17-22.71 24.54-37.23 32.79-13.8 7.85-29.24 11.18-44.75 15.11-16.6 4.21-32.68 4.39-49 4.28-46.25-.31-88.48-14.87-128-38.11a28.43 28.43 0 0 1-7.53-6.75c21.73 26.77 42.73 54.07 42.07 91.09-.41 23-12.53 39.35-32.4 50.11a37.52 37.52 0 0 0-7 4.51c-11.16 1-20.31-5.07-29.94-9-35.27-14.34-70.26-29.39-105.81-43.06-5.26-2-11.89-2.88-13.25-10.22 35.87-39.07 49.08-86.41 50.19-138.09 1.21-56.44-10.1-110.94-25.9-164.72q-3-10.27-6-20.56c-1.5-10.27 9-19.32 19.05-16.47 39.62 41.85 82.57 79.5 134.83 105 26.06 12.74 53.34 20.4 82.92 19.27 20.62-.79 38.15-7.87 53.69-20.86 12.28-10.26 22-22.72 31.12-35.77 3.56 10.25 10.56 18.19 17.22 26.36z"/><path class="cls-2" d="M647.09 675.62c40.8 15.95 81.54 32.05 121.67 49.66 8.55 3.75 17.44 6.71 26.17 10 3.67-1.08 7.24-1.41 11 .13 40.58 16.88 81.41 33.2 120.92 52.54 12.45 6.43 25.86 10.86 37.8 18.3 4 2.52 11.1 3.73 9.54 9.87-1.83 7.24-8.66 4-13.61 3.5-27.36-2.63-54.66-5.43-82.22-6.18-15.8-.43-31.82-.36-45.26-2 9.63 3.67 20.86 9.74 32.1 15.7 15.2 8.06 30.53 15.8 46.1 23.1 4.05 1.9 10.14 3.68 8.45 9.54-1.83 6.35-8.08 4.81-12.85 3.84-30-6.08-60-12.68-90-18.56-17.46-3.41-34.58-8.23-51.95-12-17.2-1-33.72-5.78-50.52-9a36.92 36.92 0 0 0-6.46-.85c-29.27-5.26-58.74-9.11-88.16-13.35-22-3.17-44.32-2.88-66.33-6.38-13.91-2.21-28.15-.73-42.25-.64-6.42 0-9.25 3.59-10.38 9.81A116.35 116.35 0 0 1 489 847.22c-2.62 4.87-5 10.34-11.64 11.25-8.94 7.3-16.5 16-26.43 22.39-34.49 22.1-88 12.47-112.39-20.82 24.45-16.72 44.22-37.61 57.78-64.17 5.88-11.52 10.6-23.5 12.69-36.2 1.24-7.51 3.14-13.84 11.65-17.78-4.05-1.21-8.72 2.92-9.08-4-2.21-42.9-19.19-58.44-43.17-79.1 3.48-2.72 7.08-1.15 10.47-.85C413 661 444.2 653.7 471 631.44c27.62-22.92 40.54-53.31 44.27-88.26.23-2.18.3-4.37.45-6.56 37.5 9.26 53.25 44.6 53.52 75.89.1 12.4 8 20.83 9.61 32 .54 3.69 6.44 5.35 10.53 7 19.27 7.98 38.48 16.06 57.71 24.11z"/><path class="cls-4" d="M1633.28 971.28c-7.07 4.27-11.56-2.36-16.49-4.69-23.14-10.93-46.44-15.79-72.38-11.26-24.1 4.21-43.25 14.73-58.59 33.28a46.19 46.19 0 0 0-7.14 12.88 6.23 6.23 0 0 1-5.35 4.31c-2.3 2.38-5 3.64-8.37 2.87-16.86-3.91-33.7-7.92-50.42-12.39a9.66 9.66 0 0 1-5.43-3.37c-6.47-12.07 2.43-21.07 7-30.27 14.39-28.65 37.39-49.71 63.29-67.8 19.77-13.81 40.58-25.75 63.38-33.94 2.45-.88 3.81-3.19 6-4.47a9.09 9.09 0 0 1 2.82-.79c13.59-4.47 26.46-10.79 40.17-15 21-6.42 41.46-15.14 63.68-17.16-52.44 5.37-103.94-.37-153.46-17.8-40.59-14.29-76.21-36.63-96.84-76.86a128.3 128.3 0 0 1-14.2-53c-2.27-47.74 14.37-90.2 36.46-131.14 1.63-3 3.25-6.08 5.07-9s3.7-6 8.09-4.42c24-6.28 46.22-16.9 68.23-28 48-24.18 93.09-53 137-83.93 2.52-1.78 4.76-5 10-4.27-7.42 9.9-14.32 19.21-21.33 28.44-34.74 45.7-66.38 93.31-89.85 145.94-10 22.32-17.63 45.28-20 69.83-2.57 26.61 6.57 47.85 28.3 63.4 22.22 15.91 47.63 24.36 73.89 30.55 64.69 15.23 130.53 18.52 196.66 18.55a38.12 38.12 0 0 1 9.15.75c-20.34 7.08-40.74 13.5-60.49 21.77-43.21 18.08-84.13 39.77-115.25 76-18.71 21.76-29.26 47-28.41 76.31.16 8.57 2.53 16.56 4.81 24.68z"/><path class="cls-5" d="M1741.13 384.45c-2.35-6.11-5.53-12-6.89-18.36-4.43-20.62 6.54-37.18 27.67-41.63 31.38-6.62 58.67 3.45 83.21 22.26a118.38 118.38 0 0 1 35.78 45.2c1.54 3.35 3.27 6.61 5.26 10.62 6.75-6.42 11.27-13.93 18.22-19.27 32.69-25.19 83-12.87 100.24 24.8 8.2 17.9 3.29 36.22-12.84 48.16-8.87 6.57-19.15 10.14-31 14.33 15.88 2.43 30.33 2.33 44.22 6.32 31.93 9.19 54.64 27.88 60.73 61.77 4.54 25.27.16 49.25-16.85 69.7-9.54 11.46-21.33 17.08-36.49 13.42-6.37 3.62-10.66-.65-15-4.11a84.47 84.47 0 0 1-28.49-43.09c.87 22.77-12.67 45.41-36.16 55.89-11.35 5.06-23.53 4.13-35 1.6-29.41-6.48-53-22.89-72.77-45.24-6.68-7.54-12.94-15.29-17.33-24.35-15.48-32-8.56-43.51 9.11-58.88-30.85-5.47-55.59-21.37-75.68-45.05-5.58-6.58-8.82-14.49-10.53-22.8-2.21-10.73.69-20.12 10.53-25.91 6.77-4 7.75-8.08 2.69-14-2.91-3.26-4.1-7.09-2.63-11.38z"/><path class="cls-2" d="M1973 1341.87a137.89 137.89 0 0 0 16.34-81.58c-2-19.27-10.11-36-27.66-46.6-6 46.81-31.08 82-68.52 108.6-27.81 19.79-58.23 28.89-91.88 14.35-.4-.17-1.11.34-2.18.71 1.25 1.91 2.37 3.71 3.59 5.44 12 16.95 17 35.42 11.89 55.94-4.8 19.25-15.67 34.65-31.21 46.66-6.15 4.75-10.62 9.86-12.61 17.77-2.07 8.25-11.49 12.41-16.55 7.45-5.46-5.35-10.29-3.85-16.16-2.42-27.12 6.6-52.11 2.52-74.09-15.56-18.26-15-27.23-35.41-33.14-57.55-.63-2.35-.14-5.73-2.9-6.46s-3.92 2.46-5.46 4.32a149.33 149.33 0 0 1-35.9 31.4c-34.27 21.59-73.49 20.46-106.77-2.28-23-15.7-40.27-36.34-54.46-59.91-9.87 9-15.46 20.27-19.06 33.13-3.72 13.28.41 26 .75 38.92 1 .71 2.5 1.22 2.85 2.17 7.64 20.57 22.5 35.62 40 47.18 55.27 36.5 113.84 42.08 174.83 15.14 4.79-2.11 7.87-1.84 11.5 2 19.29 20.23 43.13 31.39 70.39 37.23 24.19 5.18 48.42 5.31 72.82 5.08a179.08 179.08 0 0 0 81.2-20c25.61-13.14 42.76-38.69 25.51-71.71-3.4-6.52-1.29-9.4 4-12.62 14-8.47 26-19.34 37.91-30.53 0 0 11.51-2.59 34-28.21s10.97-38.06 10.97-38.06z"/><path class="cls-6" d="M1440.56 531.25c-25.87 43.12-46.06 88.14-45.12 139.83.75 41.11 18.18 74.19 50.47 99.18 37.53 29 81.49 40.77 127.68 47.15 31.17 4.31 62.38 3 93.7 3.45-.1 3.72-2.84 3.17-4.66 3.63A800.75 800.75 0 0 0 1558.42 858c-2.27.91-4.56 2.37-7.07.57-3.29-2.39-8.13-3.24-7.57-9.15.28-3-2.68-2.83-4.85-2.93-11.3-.53-22.4-1.6-31.43-14.1.51 10.19-4.4 10.91-10.26 11.28-6.79.43-13.65-.65-20.41 1.41-3.48 1.06-6.51-1.36-9.41-3.25-16.88-11-16.89-11-28.16 5.17-13.88 6.3-29 7.59-43.73 9.72-18.23 2.64-36.57 2-55-1.14-44-7.44-74.54-49.11-67.35-93.18a180.74 180.74 0 0 1 11-39.68 29.12 29.12 0 0 0 1.78-5.33c2.23-11.2 2.89-11.43 12.49-4.77 1 .71 2.13 1.31 3.12 2.06-10.49-7.29-10.36-11-.32-23.17-34.54 30.82-72.49 59.51-118.37 75.95-9.08 3.25-11.17 2.65-13.2-4 4.73-19.44 12.67-37.77 20-56.28 9-22.9 19-45.42 28.62-68.08 1.56-3.66 2.84-7.53 6-10.28a15.46 15.46 0 0 1 10.18-4.12c38.45-1.15 71.85-17.22 104-36.24a490.72 490.72 0 0 0 57.4-40.33c4.47-3.6 10-4.91 15-7.54 17.41-12 31.28-28.08 48.47-40.72z"/><path class="cls-4" d="M636.84 1152.23c-12.21 1-22.77-5.22-33.84-8.51-13.92-4.14-27.8-2.82-41.71-3.68-21.7-1.34-42.35 3.62-62.6 10.78-56.07-9.45-111.14-2.36-166.53 9.27 11.51-9 23.19-17.86 34.51-27.13 42.59-34.87 81.6-73.09 110.35-120.58 8.38-13.84 15.52-28.4 19.54-44.24 1.37-3.76 4.36-3.94 7.68-3.56 52.83 6 104.36 17.18 152.65 40.09a202.86 202.86 0 0 1 55.42 38.23c2.91 2.86 5.92 5.69 6.1 10.19-.45 5.22-4.38 7.5-8.5 9-9.65 3.45-19.37 6.75-26.87 8.72 12.12-1.73 25-11.4 40.64-9.27 12.71 9.3 21.13 20.9 20.05 37.56-.19 4.31-2.92 6.51-6.48 8.32-29.65 15.06-58.84 31.07-89.22 44.68-3.55 1.54-7.4 3.98-11.19.13z"/><path class="cls-6" d="M716 1053.89c-16.46-20-37.74-33.69-60.6-44.73-43.16-20.84-89.21-31.93-136.57-38-7.43-1-14.85-2-22.27-3-26.11-4-52.61-3.61-78.8-6.95 27.92-1.17 55.65-3.64 83.1-8.87 5.32-5.54 12.42-6.68 19.5-8 44.19-8.35 86.91-21.12 126.45-43 13.67-7.57 26.55-16.33 37.47-27.87 12.53-13.24 20-28.56 22-46.61.32-2.82.75-5.62 3.22-7.53 18.91 2.91 37.72 6.37 56.33 10.89 26.94 12.14 48.42 31.63 69.21 51.91a119.62 119.62 0 0 1 22.71 30.82c11 21.39 7.2 43.75-9.09 61.35-22.18 24-48.57 42.09-77.19 57.19-14.63 7.72-28.83 16.34-44.37 22.27-3.66 1.32-7.32 4.13-11.1.13z"/><path class="cls-5" d="M500.27 322.46c-19.7-10.11-35.35-24.45-45.77-44.17-20.28-38.36-3.33-68.22 40.13-70.49 8.37-.44 16.79-.06 27.33-.06-11.26-8.83-21.24-16.06-28.27-26.6-12.06-18.1-14.33-36.79-3-55.45 11.75-19.26 30.38-26 52.32-24.34 6.88.52 13.85 1.79 19.88 5.07 7.18 3.91 9.78 1.6 12.61-5.37C585.61 76.27 603.13 59 629.09 51a62.81 62.81 0 0 1 32.4-1.64c23.88 5.24 34.91 23.9 27.51 47.2a84.36 84.36 0 0 1-14.23 26.23c-1.57 2-5 4.33.35 6 32.33 3.17 36.94 36.67 24.59 55.64-7.47 11.47-18.27 18.59-31.82 23.92a128.41 128.41 0 0 1 11.45 7.52c20.85 14.84 19.92 45.06 0 63.87-7.28 6.88-7.49 7.62.69 13.47.51.36 1 .7 1.57 1 4.23 2.68 10.22 5.75 6.33 11.3s-9.35 1.18-13.08-1.87c-10.72-8.77-22.46-12.27-36.43-10.87-17.58 1.77-32.07-7.26-45.85-16.53-6.59-4.44-9-3.2-11.12 3.7-3.26 10.54-8.64 20.09-14.95 29.09-12.43 17.87-32.5 25.79-53.1 21.75-5.75-1.13-9.4-4.49-13.13-8.32z"/><path class="cls-2" d="M1871.9 674.59c23.54 6.64 47.31 12.07 72 10.74 16.06-.87 31.67-3.64 45.13-13.53 16.93-12.44 21.75-30.47 23.3-50-25.14-11.22-34.17-34.93-44.68-59.06-1 5.71-1.7 10-2.62 14.26-4.56 21.07-11.27 40.89-33.93 49.28-17.15 6.36-33.91 2.56-50.15-4A136.83 136.83 0 0 1 1834.6 591c-14.14-14.32-26.53-30-30.2-50.8-1.89-10.68 1.1-19.49 8.56-27.41 4.67-5 11.22-6.93 17.28-11.69-2.75-.67-4.2-1.27-5.69-1.36-22.32-1.43-41.88-10.33-59.2-23.67-13.63-10.5-26.37-22.28-30.37-40.4-1.86-8.44.48-15 6.49-21.21 4.33-4.47 14.44-3 14.07-9.7-.29-5.17-6.85-10-10.59-15-1.31-1.75-2.55-3.55-3.82-5.33-43.09 20.41-55.19 58-49.61 94.91 7.71 51.13 21.37 107 64.5 135.35 0 0 30.92 22.71 58.94 36.72a445.33 445.33 0 0 0 56.94 23.18z"/><path class="cls-5" d="M73.54 1112.1c-25.4-16.6-18.31-50.24 3.77-63.18 6.94-4.07 7.56-7.25 4.77-14.48-6.49-16.76.6-34.72 15.86-43.67 19.93-11.68 40.31-2.38 44.83 20.52.72 3.65 1.1 7.36 1.87 12.69 12.22-11.64 24.2-21.56 41.53-17.66 10.95 2.46 19.25 8.83 25.57 17.81 10.61 15.07 8.65 31-5.37 42.51 21.13-.65 36.19 8.54 45.87 26.77 10.74 20.44 8 39.9-6.93 55.42-12.6 13.06-27.3 13.66-43.13 8.33-8.23-2.77-10.42-2.43-9.4 4.95 3.75 27.32-22.85 44.32-51.87 38.11-7-1.51-13-4.3-16.95-10.54a57 57 0 0 1-18.67-17.16c-3.49-2.65-7.34-5.42-7.33-10.15 0-8.18-5.23-12.06-11.21-15.72-6.37-3.9-12.75-7.83-15.12-15.63.61-5.52 4.23-4.07 7.31-2.91 5.3 2 9.79 5.46 14.57 8.43 6.7 4.16 9.82 2.95 13.07-4 1.56-3.34.34-4.5-2.49-5.45a48 48 0 0 0-8.19-2c-9.2-1.42-17.65-3.93-22.36-12.99z"/><path class="cls-4" d="M709.53 819.25c3.53 27.6-10.4 47.63-29.5 64.5-21.32 18.84-46.69 31-73.2 41.11a507.9 507.9 0 0 1-106 27.45c7.64-35.16-2.57-65.84-23.53-93.83 6.75-12.9 14.52-25.34 17.44-39.92.36-1.81 1.3-3.52 1.57-5.34 2.21-14.93 2.19-15 17.68-14.92 42.95.13 85.58 4.19 128.08 10.08 22.59 3.11 45.18 6.02 67.46 10.87z"/><path class="cls-2" d="M500.27 322.46c9.93 2.52 19.51 6.6 30.25 4.68 21.93-3.92 33.76-19 42.22-37.73a163.87 163.87 0 0 0 7.35-21.26c1.59-5.38 3.82-5.82 7.52-2C594 272.81 602 277.12 610 281.47c12.26 6.69 25.52 9.24 39.07 6.77 7.43-1.35 12.69.83 18.2 4.75 5.84 4.15 11.88 8 19.17 10.2-6.18-4.16-12.27-8.45-18.56-12.43-5.07-3.22-6.18-5.74.18-8.82 9.15-4.42 15.21-11.94 19.19-21.1 7.52-17.29 1.29-35.39-15.62-45.1-4.76-2.73-9.94-4.74-16.62-7.88 12-4.26 22.56-7.74 31.4-15.06 14.4-11.91 19.48-30 11-46.23-2.37-4.56-8-7.52-12.28-10.95-3.16-2.5-6.68-4.56-10-6.81 13.76-4.45 27.85-.66 38.8 5.28 19.29 10.46 35.09 25.84 39 49.73 3.29 20.1-6.62 35.65-26.87 40.36-5.44 1.27-11 2.05-18.14 3.36 9.7 11.79 15.18 24.07 14.53 39-.92 21.07-9.61 38.3-23.29 53.55-4.79 5.34-9.82 10.46-14.73 15.68-6.56 5.25-16 7.13-19.05 16.47-3.26-3.43-6.24-1-9.29.41-11.41 5.21-22.93 10-35.88 9.37a12 12 0 0 0-9.44 3.34c-38.93 38.37-103.27 8.19-109.89-40.17-.14-.91-.41-1.82-.61-2.73zm735.61 1555.07c24.45-5.06 48.69-11.85 70.37-25 15.61-9.44 29-20.75 38.32-37.5 8.5-15.31 1.29-31.09 5.31-46.14.07-.27-.58-.94-1-1.12-11.64-4.91-11.36-19.26-23.82-26.21 11.8-1.85 20.81-1.9 29.11-5.91 22.27-10.78 31.93-40.76 29.4-65.33-1.57-15.23-8.64-28.59-12.86-42.91a23.23 23.23 0 0 0-1.41 4.42c-2.68 23.54-11.55 44.66-25.16 63.85-18.56 26.18-45.74 31.56-72.88 14.74-1.56-1-3-3.1-5.8-2 9.62 14.43 17.41 29.32 21.52 45.89 7.39 29.77-4.83 53.45-33.34 64.87-16.19 6.49-33.18 9.21-50.43 9.28a212.27 212.27 0 0 1-93.43-20.69c-2.06 8.77-.41 12.79 2.59 25.4 2.13 9 4.69 14.81 10.87 18.38 12.42 7.19 20.42 7.34 54.31 18.63 42.01 14.08 58.33 7.35 58.33 7.35zM891.49 234c13.94 27.24 34 48.29 61.59 62.11 27.23 13.66 56.36 14.84 86.64 14.23-24.28 14.14-38.68 38.23-60.78 56.9l9.52-4-4.57 19.51c-7.46-3.7-14.79-5.45-23.27-2.26-5.45 2.05-10.22-3.5-16.19-4a133.09 133.09 0 0 1-51.6-15.71c-20.18-10.84-29.92-28.09-31.75-50.65-2.06-25.44 8.13-46.13 23.66-65 2.78-3.38 5.7-6.69 6.75-11.13zm1060.45 936.6c-20.29-25.89-49.07-34.08-82.57-38.08 16.53-6.06 29.64-12.82 39-25.16 12.72-16.83 13.75-38 1.65-52.07-9.65-11.18-23-14.41-37.56-15.28 33.52-10.41 62.39-27 81.21-57.63 5 10.28 14.84 16.62 20.56 26.56 17.25 30 20.34 61.75 13.94 95-3.21 16.69-9.56 32.22-18 47-4.63 8.06-10.94 14.24-18.23 19.66z"/><path d="M1410.87 540.59c-45 38.78-92.85 72.45-152.09 86.13-11.44 2.64-22.9 2.51-34.44 2.09 9.47-25.09 23.4-47.92 36.79-70.95 9-15.56 19.55-30.28 29.53-45.28 3.82-5.73 8.73-9.79 16.34-8.27 13.65 24.84 35.55 36.28 63 38.23 13.64.98 27.3-.08 40.87-1.95z" fill="#fd4443"/><path class="cls-2" d="M259.18 858.83c11.85 16.47 28.56 15.8 45.86 13 3.69-.6 7.38-1.25 11.07-1.87-3.45 21.42-9.26 42-20.4 60.91C281.2 955.46 251 963 225.54 949.55c-20.14-10.67-34.77-27.2-49.87-43.26-4.23-4.5-5.71-11.58-8.46-17.48 26.19.72 46.41-9.72 60.25-32.16 1.92-3.12 3.47-7.38 7.32-.9 2.18 3.66 5.82 3.05 7.91-1.19l-.1.13c2 1.7 3.69 4 6.73 3.94 1.9-1.88-2.93-4.6.79-6 1.8-.67 2.32 1.5 3.55 2.19 2.99-.23 5.46.18 5.52 4.01zM124 1189.69c9.79 4.32 19.8 7.58 30.73 7.2 25-.89 37.47-16.82 32.84-42.16-.55-3-2.24-5.93-.24-9.18 4.67 0 7.83 3.45 11.63 5.37 23.72 11.95 46.26 2 53.87-23.37 3.48-11.6 2.3-22.8-.55-34.13 11.64 12.6 21.25 26.38 22.34 44.17s-4.79 25.77-21.93 31.13a85.88 85.88 0 0 1-12.83 2.57c-5.74.86-9.61 3.32-8.28 9.8 6.76 32.93-29.91 51.74-58.73 46.65-19.39-3.43-34.64-11.83-45.17-28.54-1.91-2.94-3.53-5.95-3.68-9.51zm874.57 572.96c3.84 2.53 2.65 4.94 4.27 7.24 10.54 15 26.47 18 43.05 18.22 5.89.08 14.3 4.66 15.5 3.1 6-7.73 14.41-5 21.46-7.31-14.55-23.21-2.64-41.56 12.93-60.38-45.89 17.46-71.9 10.21-95.13-11.37.01 0-10.65 44.85-2.08 50.5zM35.55 595.38c28.41 23.66 61 38.43 97.68 45.17C107 650.6 85 665.48 70 689.39c-11.36-12.47-22.83-24.73-29.38-40.82a89.5 89.5 0 0 1-5.07-53.19zM205 1661.41c2.58-2.26 5-4.75 7.78-6.73 5.42-3.87 9-2.36 11.27 5.2-4.17-.79-8.26-5.57-10.86.83-2.31 5.68-2.5 10.91 1 16 1.4 2 3.51 2.48 5.83 1.56 4.9-1.94 7.21-5.55 7.57-10.81.19-2.69-1.28-7.19 4-6.53 4 .49 6.86 2.64 7.13 7.33.17 3.06-1.74 6.07.25 10.07 3.41-5.55.51-17.7 11.2-13.92 8.27 2.93.06 9.18-.82 13.89 3.36 1.2 5.21-1.28 5.2-2.88-.05-14 14-15.23 21-22.67 2.75-2.92 6.54 4.7 11.66 5.45-12.77 2.58-8.78 10.71-8.14 17.92 3.46-.35 2.49-2.73 2.93-4.32.68-2.39-1.3-6.82 2.89-6.54 3.41.22 2.42 4.42 2.77 7.1.23 1.75-.53 3.77 1.94 5.5 3.39-4.23.31-9.86 3.34-15.13 3.8 5.65 1.24 13.28 7.09 17.28.72.49-1.6 3.07-3.78 2.85-18-1.8-35.95-1.27-53.95-.88-8.25.18-8.6-.73-10.06-16.52-3 10.92-6.16 18.58-16.3 18.82-8.87-5.07-10.17-13.85-10.94-22.87zm694.2 21.05c-11.49-.47-22.92-1.48-34.48-.51-13.31 1.12-14 .11-15.32-13.41-2.65.8-2.34 3.28-2.88 5.11-2.2 7.44-7 11.53-14.64 9.33s-10.85-8.11-9.53-16.06c.91-5.47 3.51-10.08 8.33-13 3.86-2.36 7.21-1.49 9.37 2.6a3 3 0 0 1-.31 2.59 2.31 2.31 0 0 1-2.27.22c-7.67-5.91-7.47 1.94-8.57 5.4-1.69 5.33-1.17 11.21 5.22 13 4.85 1.38 7.65-2.34 9.86-6.69 1.7-3.33-3.35-11.35 5.55-9.71 8.05 1.48 6 8.1 5.31 13.65-.1.82.34 1.7.87 4.13 3.33-6.52.52-18.55 11.48-14.62 8.07 2.89-.39 9.18-.87 13.93 3.38.85 5.2-1.44 5.19-3.17-.06-14.06 14.43-14.74 21.09-22.59 1.6-1.88 7.44 3.1 12 6.56-14.16 1.35-8.82 9.92-8.67 17.26 3.6-1.26 2.52-3.8 3-5.69.5-2.16-.95-5.85 2.95-5.58 2.57.18 2.52 3.25 2.58 5.4.1 3.75 0 7.5 0 11.25zM1862 642.44c0 .58.3 1.3 0 1.7M636.84 1152.23c34.23-15.62 67.51-33.16 101-50.26a20.61 20.61 0 0 0 3.55-3 20.72 20.72 0 0 1 10.07-9.26c19.47-8.75 36.91-21.57 57.28-28.54 1.43-.49 2.26-2.08 3.22-3.3q40.91-22 81.54-44.51c3.88-2.16 8.08-4.43 12.15-.78 3.8 3.41 3 7.83 1.72 12.23a69.12 69.12 0 0 1-10.23 22c-6.43 8.86-13.54 17.2-18.91 25.1 26.3-20 54.09-40.34 80.74-62.18 16.46-13.49 33.29-26.52 49.44-40.39a49 49 0 0 1 5.9-4.64c3.35-2.09 6.48-6 10.88-3.18 4.91 3.12 3.62 8 2.62 12.73-4.24 19.95-11.26 39.11-16.56 58.75-.57 2.1-1.4 4.13-1 7.1 4.79-.25 8.13-3.11 11.65-5.35 20.08-12.8 39-27.23 58.2-41.29 5.31-3.89 11.12-11.79 17.73-7.29 7.65 5.2.94 13.34-1.16 19.63-10.87 32.58-26.89 62.63-46.38 90.86-20.32 30.87-43.29 59.69-67.58 87.51-17.27 19.78-35.1 39.07-52 59.18-4.59 5.46-9.25 11.2-17.06 12.41l-9.26 9c-11.22 4.72-12.05 4.13-12-8.74 0-3.1-.37-6.24.43-9.29-1.09 4.26-.33 8.62-.39 12.92 0 3.6 0 7.27-4.17 8.43-4.75 1.33-5.23-3.11-6.84-5.88-.47-.81-.71-1.77-2.23-2.21-3.22.26-3 4.95-6.2 5.91-1.16.35-2.08 1.37-3.23 1.88-6 2.68-6.71-1.32-7.2-5.63-1.22 3.73-2.86 7.68-7.63 6s-2.68-6.38-2.85-9.9c-.11-2.22.4-4.8-2.48-5.25-3.19-.5-3 2.43-3.5 4.43-1.51 5.61-3.58 11.06-10 12.38-4.12.84-7.27-2.19-9.25-5.3-3.6-5.63-2.27-11.34 1.3-16.64.64-1 1.29-1.92 1.51-2.19-3.47 4.8-6.8 10.37-3.56 17.44a11.36 11.36 0 0 0 8.47 6.73c4.22.73 6.76-2.56 9-5.66.91-1.28 1.11-2.93 1.84-4.3 1.24-2.29.05-6.9 3.77-6.6 4.64.36 2.63 4.85 2.72 7.61.18 5.57.83 8.32 8.23 7.09 4.89-.81 10.4-2.48 14.75-2.07 8 .77 17.45-1.51 24 6l-38.08 45.88c-4.74.75-4.48-3.63-5.78-6q-39.64-72-121.75-73.56c-12.85-.23-25.58.27-38.14 3.34-6.63 1.62-10.27 0-10.67-8.14-1.63-32.6-16.69-57.54-44.36-74.93-2.1-1.21-7.46-1.61-3.26-6.28z"/><path class="cls-8" d="M497.05 1421.47c-22.11 10.17-41.42 20.43-59.51 32.73-24.73 16.82-47.8 35.44-62 62.7-8.33 16-9.18 22-8.86 49.61-28.12-34.79-30.7-79.89-5.7-110.39 19.31-23.57 45-36.12 74.76-41.05 20.17-3.34 39.77-1.92 61.31 6.4z"/><path class="cls-3" d="M353.71 1396.25c-17.28-12.06-31.12-24.54-40.36-41.37-11.8-21.49-5.61-41.55 16.11-52.84a85.17 85.17 0 0 1 32.29-9.11c39.56-3.41 77.08 5.19 113.48 19.92a12.84 12.84 0 0 1 2.52 1.22c.42.29.59 1 1.73 3h-27.55c-23.2 0-46.3 1.28-69 6.08-8.5 1.79-17.05 4-24.34 9.07-14 9.71-14.66 23.83-11.68 38.65 1.54 7.87 4.09 15.57 6.8 25.38zm195.45 73.36c.18-3.11 0-6.31.62-9.32.92-4.29 3.9-6.61 8.31-5.22 5.1 1.61 3.21 5.11 1.57 8.28-.68 1.32-1.46 2.59-2.66 4.69 4.9.33 6.25-2.26 6.95-5.32 1.07-4.64 2.78-8.5 8.5-8 6.19.54 4.23 5.85 5.34 9.37a10.26 10.26 0 0 0 1.45 2c3-3.32 2.93-8 1.51-10.36-3-5.09-.74-8.14 2.3-11.22 4-4 4.93 3.43 8.43 2.56 1.37-.34 3 .57 4 3.05-2.37 2.1-9.47-3-8.68 4.57.41 4-.72 8.08 1 12.49 3.67-1.42 2.41-4.63 2.87-7 .36-1.84.32-4.22 2.64-4.31s2.46 2.28 2.81 4.12c.44 2.29-.86 5 1.67 7 4.14-2.44.26-7.93 3.6-10.43 2.08.11 2 1.52 2.41 2.65.87 2.33-1.37 6.76 2.8 6.66 3.29-.08 1.87-3.76 2-6.16.15-3.54 1.11-6.53 4.48-1.65 1.29 1.87 1.84.79 2.62-.28 2.4-3.24 5.93-4.67 8.79-1.86 3.23 3.17-.12 6.21-2.15 8.87-.72.95-1.93 1.63-1.13 3.1 3.12 2.51 4.6-2.44 8.11-1.46-3.12 5-7 6.51-11.43 2.94-3.65-2.94-6.38-3.18-9.63.18-2.28 2.36-5.32 1.23-8 1.17-17-.38-34 1.48-51-1.13zm-.02-.02c-6.88 4.22-6.44-3-9.29-6.19-5.16 3.22-8.19 10.84-16 9.15a12.62 12.62 0 0 1-8.08-6c-3.92-6.27-1.16-16.32 5.63-20.54 5-3.09 6.82-2.35 11.11 5.85-8-6-11.27-2.16-12.61 4.11-1.11 5.18-.23 11.28 5.84 12 11.39 1.33 8.93-9.41 11.88-15.78 5.69 1.58 10.68 3.3 8.23 11.18-.81 2.61 1.18 4.71 3.29 6.29z"/><path class="cls-2" d="M1410.1 989.71c20.6 7.22 42.12 10.83 63.22 16.09 1.78 1.44 3.08 3 2.55 5.58-5.4 26.56 5.42 47.6 22.66 66.46 2.88 3.15 5.59 6.46 9.29 10.76-19.7 2.93-37.83 7.29-55.14 14.37-15.44 6.31-30.15 14-41.67 26.49-13.17 14.31-10.7 28.34 6.69 37.25 14.47 7.41 30.33 9.53 46.21 11.39a26.77 26.77 0 0 1 7.49 1.45c-19.14 4.42-35.09 14.34-49.67 26.74-7.38-5.14-15.19-9.62-22.6-14.72 7.42 5.08 15.25 9.52 22.54 14.79-5 10.1-13.07 18.68-15.19 30.23l-9.33-9.6c-12.89-6.32-20.6-18.15-29.52-28.49-16.75-19.42-33.66-38.72-50.93-57.65-20.24-22.18-40.35-44.53-61.6-65.79q-6-6-12.28-11.62c-6.64-9.64-16.14-16.39-24.61-24.15-3.23-3-6.73-5.67-9.43-9.1-4.68-5.93-2.84-10.74 4.49-12.1 3.7-.69 7.49-.5 11.24-.51 19.72 0 39.43 0 59.15-.06 2.41 0 5.57.92 6.92-1.61 1.46-2.74-1.5-4.41-3-6.23-14.91-17.86-32.63-32.66-51.1-46.62-2.75-2.08-5.38-4.29-8.15-6.33-3.5-2.58-6.58-5.65-4.18-10.15 2-3.83 6-3.77 10-2.84 8.22 1.91 16.51 3.6 24.7 5.64 27.61 6.9 55.51 12.6 82.93 20.28 18.87 4.1 37.59 8.78 56.32 13.47 4.62 1.18 8.9 2.76 12 6.58z"/><path class="cls-8" d="M1676.86 1117.25c-19.56-21.89-27.78-45.3-23.42-72.24 3.44-21.27 20-34.49 41.6-34.48 5.54 0 11.08.66 18.12 1.11-6.13-9.05-6.36-19.13-10.61-28.21-1.77-3.79.6-12.67 2.06-19.12 4.73-20.81 18.85-33.49 37.06-42.1 27.86-13.18 57.66-16 88-14.23 18.07 1.08 36 3.45 53.36 9.64a180.15 180.15 0 0 0-45.65 1c-32.12 4.76-60.49 16.7-79.29 44.58-15.23 22.58-15.65 46.7-4.42 71.39 3.22 7.09 6.18 14.22 11.06 20.35 1.19 1.5 2.7 3 1.16 4.87-1.3 1.58-3.36 1.7-5.21.95-3.17-1.29-6.27-2.76-9.38-4.2-13.63-6.31-28.15-9.28-42.87-7.46-29.85 3.71-42.15 22.18-35.65 51.72 1.04 4.78 2.36 9.54 4.08 16.43zm-194.32 240.19c-31.43-36.82-39.53-87.43-13.53-121.91 26.52-35.16 74.13-41.61 100.23-29.62-29.61 12.75-51.44 33-66.27 61-14.61 27.68-19.58 57.46-20.43 90.53zm-282.4-1145.91c-1.69-20.5-5.4-40.76-2.47-61.65 5.21-37.09 27.29-60.27 63.84-63.55 12.74-1.14 25.48 1.19 38 4.61 28.65 7.84 54.34 21.67 78.78 38.88-2.38-.57-4.75-1.12-7.13-1.71-24.78-6.15-49.52-10.84-75.41-7.23-44.16 6.17-73.28 37.34-75.16 82.26-.46 10.91-.08 21.85-.08 32.77-6.91 5.2-16.46 1.3-18.72-8.08-1.32-5.27-2.39-10.74-1.65-16.3z"/><path class="cls-3" d="M1036.12 108.89C989 124.27 954 150.13 951.26 206.1c-15.62-12.27-27-25.08-28.47-43.85-1.45-18.33 8.52-30.87 23.3-39.82 27.91-16.93 58.23-19.29 90.03-13.54zm164.02 102.64c2.46 3.56 4.4 6.71 4.57 11.79.36 11 4.27 13.34 15.76 12.6l7.35 45.91c-6.75-7.85-8.71-16.33-12.32-23.94-1.54-3.23-1.75-7.38-7-7.55-3-.1-3.31-3-2.21-5 5.95-11-2.74-9.81-8.58-10-9.26-.38-18.61-.64-27.81.25s-13.15-2.3-10.76-14.69c-6.27 9.42-9.49 19-20.18 15.43-6.77-2.26-9.17-8.65-8-15.32 1.07-6.17 5-11 11.61-12.09 4.08-.68 6.2 1.82 5.92 7.72-5.68-6.2-8.91-3.92-11.15 1.68-2.46 6.18-.91 11.76 4.8 14.41 5.89 2.73 7.58-3.12 10.07-7.05 1.81-2.86-2.43-9.67 5-8.64 6.33.87 6 5.86 5.46 10.79-.15 1.32 1 2.79 2.23 6 1.25-4.74 1.7-7.92 3-10.75s3.24-6 7.07-4.38 3 4.91 1.47 8c-.81 1.62-1.51 3.29-2.6 5.69 4.65.12 6.27-2.09 7.06-5.39 1.09-4.55 3.2-9 8.4-8.48 6.31.59 4.39 6.42 5 10.47a21.63 21.63 0 0 0 1.4 3.5c3.58-5.16 3.71-11 1.4-14.45-3.58-5.45.29-5.22 3.04-6.51z"/><path class="cls-8" d="M255.07 517.27c-15.6.15-30.83-3.13-46.18-5.45-14.79-2.23-29.59-6.57-44.32-6.31-13.35.24-27.37-.84-40.44 4.81-14.87 6.42-24.95 16.44-26.82 33.06-.49 4.35-2.34 7.17-6.24 8.22s-4.17-3-5.57-5.15c-6.68-10.23-13.16-20.55-14.5-33.17-1.4-13.52 3.43-22.92 15.57-29.28 16.91-8.85 35.07-8 53.27-6.65a187.45 187.45 0 0 1 45.81 8.75c23.88 8.02 48 16.36 69.42 31.17zM136 814.87c-9.68-20.32-17.84-40.89-22.81-62.63-2.21-9.68-4.27-19.31-4.32-29.38-.15-31.5 13.75-48.76 44.56-54 21.06-3.57 42.18-3 63.85.22-77.68 20.98-86.78 79.15-81.28 145.79z"/><path class="cls-3" d="M259.18 858.83l-5.51-4c.83-3 1.47-6.06 2.52-9 1.44-4 3.81-7.71 8.61-7.11 4.64.59 3.87 4.88 4.12 8.24.13 1.8.45 3.59.88 6.9 4.52-5.42 2.15-10.31 2.68-14.77.3-2.54-6.47-2.5-2-5.08 3-1.74 5.57-9.84 11-2.41.89 1.21 3.68.6 5 3.59-3.74.16-9-1.54-8.18 5.22.49 3.91.09 7.93.09 12.11 4.59-.56 3.33-3.31 3.75-5.15.52-2.23-.8-6 2.68-5.95 3.07 0 2.67 3.64 2.93 6.06.19 1.76-.11 3.69 1.79 5.24 3.87-3.57.31-8.67 3.34-12.81 4.66 3 .48 10 5.5 12.57 4.55-2.44.9-7.72 3.6-10.77 3.28-2.39 2.16 5.59 4.47 2.33 2.65-3.74 5.63-5.89 9.13-3.36 4.35 3.15 1.77 7.17-.76 10.6a7.58 7.58 0 0 0-.7 1.72c1.91 3.66 4.23-2.57 6.25.34-1.29 3.89-5.33 6.44-7.78 4.31-9.07-7.88-17 2-25.69.81-9.04-1.2-18.53-2.15-27.72.37z"/><path class="cls-6" d="M1246.85 1061.57c20 17.93 37.78 38 56 57.64q47.14 50.8 91.64 104c1 1.18 1.78 2.54 2.66 3.82-15.44-3.75-30-10.47-45.76-13.26-49.44-8.76-94.3-1.41-129.44 37.81-20.79 23.2-31.14 51.54-37.38 81.73-8.2 39.69-7.42 79.52-3.2 119.48 2.49 5.94 10.51 10.84 3.46 18.56-1.8 5.06 2.31 10.15 0 15.21h-.05c-5.28-3.68-3.46-10.81-7.36-15.16-5-4.59-9.49-9.28-5.33-16.89 1.23-2.25 0-4.19-2.14-5.46-16.62-44.1-39.58-84.55-73.08-117.88-34.9-34.73-76.78-57.62-125.61-66.88-15-2.85-29.94-6.26-45.49-4.41a14.15 14.15 0 0 1-12.05-4c28.17-32.23 56.45-64.36 84.48-96.71 17.61-20.33 33-42.39 48.92-64 3.93-2.32 7.26-.52 10.41 1.68a100.91 100.91 0 0 1 17.6 15.45c4.47 5 5.43 9.74-.09 14.52 4.77-4.64 8.58-4.22 12.28 1.74 9.47 15.25 16.43 31.59 22 48.59 9.12 28 17.84 56.07 17 85.92 2.25-48 10.3-94.74 32.26-138.18 12.25-24.23 30-43.57 53.53-57.33 6.69-3.91 14.45-5.51 21.22-9.65 4.67-3.04 9.38.78 13.52 3.66z"/><path class="cls-2" d="M898.79 1271.94c-11.44-4.37-23.25-1.7-34.92-1.89-13.31-.22-13.31-.36-14.41-13.85-2.67 2-2.68 4.84-3.63 7.1-2.38 5.7-5.92 9.9-12.79 8.29-6.68-1.57-11.44-5.52-11.38-12.94.06-7 3.09-12.89 9-16.52 5-3.05 8.94-2 9.81 5.81-3.74-.64-7.64-5.27-10.32 1.21-2.42 5.83-2.6 10.82 1 15.87 1.35 1.91 3.39 3 5.74 1.85a12.75 12.75 0 0 0 7.48-10.07c.45-2.74-2-8.17 3.84-7.32 4.38.64 8.21 3.42 6.26 9.33a10.49 10.49 0 0 0-.14 4.64c.16 1.08 1 2.07 2.19 4.52 2.58-7-.68-18.71 10.37-15.38 8 2.42 0 8.7-.6 14 4.11-.16 5.25-3 5.87-6 1.07-5 3.07-9.46 8.94-8.86 6.67.68 4 6.56 4.73 10.46.23 1.17.52 2.33 1.1 4.95 3.91-5.59 4.2-11.93 1.68-14.77-5.26-5.91.11-7.94 2.43-10.88 3.67-4.66 4.77 1.52 7.24 2.21 2 .55 4.56.43 5 3.39-8.63-.07-10.37 4.63-6.33 17.17 2.64-.64 1.66-2.91 2.06-4.54.59-2.41-1.25-6.69 2.93-6.45 3.25.19 3.3 4 3 6.88q-.24 2.33-.48 4.67c-1.99 2.32-1.26 6.75-5.67 7.12zm169.11 267.01c1.57 6.84 8.6 8.26 12.83 12.42 7.47 7.35 16.24 13.38 26.19 21.34-21 .69-40.15 2.49-58.71 8.12.1-17 8.66-30.02 19.69-41.88z"/><path class="cls-4" d="M1184.82 1471.31c-.5-6.31-4.44-12-3.46-18.56 7.11 1.59 15.11 2.13 13.57 14.29 3.9-4 3.81-8 2.56-10-3.89-6.08-1-11.07 3.32-13.29s7.27 3.81 13.55 6.75c-13.73.72-11 8.05-10 15.16 5.49-1.64.08-10 6.27-9.62 3.68.2 1.05 5.73 3.93 7.84 3.44-1.71-.42-7.47 3.95-8.06 4-.54 3 4 4.69 6 3-7.48 11.92-8.23 16-7.48 8 1.48.42 7.69.33 12 2 2.38 3.68-2 5.84-.23-.27 3.85-4.25 6.37-6.09 5-10.61-7.84-20.6 2.94-31.23.26-7.27-1.86-15.45-.18-23.23-.06zm-14.93-22.31c4.91 6.64 5.71 14.66 7.47 22.35-2.49-.13-5-.71-7.44-.31-9.19 1.54-12.79-2.54-11.58-11.92-3.56.95-3.36 3.74-4.24 5.69-2.83 6.27-8 9.42-14.32 7.61-6.64-1.9-9.84-7.68-9.24-14.62 1-12.07 11.1-16.6 20.87-9.68 10.59 7.5 10.59 7.5 13.12 19-.63-6.81 7.67-10.7 5.36-18.12z"/><path d="M1184.78 1486.52a21.41 21.41 0 0 1 2.8 13.93c-2.64-4.29-3.89-8.87-2.86-13.9z" fill="#feb13e"/><path d="M1246.85 1061.57c-12.89-3.64-22.29 5.55-31.93 10.47-33.33 17-51.75 46.93-64 81.07-13.83 38.58-19 78.93-24.42 119.62-1.7-9.4-3.46-18.79-5.08-28.2-6.92-40-17.53-78.73-38.2-114.23-2.88-5-4.49-4.69-8.07-2.25-2.07 1.41-4.06 2.94-6.14 4.33-1.77 1.19-3.63 2.25-5.64 3.49-1-3 1.4-3.52 2.62-4.44 12.15-9.2 12.25-10 1.15-21-6.05-6-13.08-10.68-20.12-15.38 12.34-20.94 25.33-41.51 35-63.92 6.15-14.24 12.06-28.54 16.34-45.15-32.37 22-60.86 47.34-96.93 65.32 7.47-30.67 18.88-58.49 24-90-51.94 42.94-102.65 84.05-157.21 123.36 7.81-26.83 36-41.58 35.91-71.38l-90.08 47.89a66.5 66.5 0 0 1-11.13 1c-21.91-.42-43.79.35-65.32 4.68-5.74 1.16-10.1-3.21-15.46-2.06-18.32 2.49-36.08 7.81-54.41 10.64l48.27-21.54c38-17.24 75.22-35.74 107.89-62.11 10.73-8.66 20.88-18.1 28.42-29.8 9.44-14.64 10-30.18 2.27-45.59-11.2-22.34-29.18-38.91-48.23-54.35a405.24 405.24 0 0 0-41.83-30.21c-.17-.1-.28-.68-.19-.75a13.33 13.33 0 0 1 1.51-.94c38.82 7.88 77.61 15.94 116.48 23.54 12.27 2.4 24.23 6.86 37.1 6.36-34.6-16.54-68.23-34.62-103.91-53.67 53.6 2 105 2.91 157.24 10.47-7.81-6.74-16.51-9.75-24.34-14.08s-16.67-6.87-24.14-12.07c.1-3.82 3-5.17 5.81-6.6 35.33-17.61 49.24-47.89 50.9-85.61.77-17.37-1.54-34.33-5.17-51.22-.59-2.75-1.59-5.47-1.49-8.29s1.06-5.77 4.28-6.56c2.76-.68 4.78 1.07 6.26 3.23a40 40 0 0 1 3.3 6.73c11.7 26.75 25.45 52.32 43.31 75.54 7.13 9.26 9.17 9.93 20.31 5.83 3.08-1.13 6.49-2 8.58 1 2.52 3.67 0 6.68-3 8.61-5.82 3.74-5.35 6.75.35 10 7.56 4.37 9.79 10.91 9.7 19.7-.27 26-.87 52 .29 77.92.87 14 0 28 2.81 43.56 5.24-14.87 9.8-28.37 15.72-41.34 6-13.22 12.71-26 22.46-39.17 2.85 30.06 7.47 57.89 16.43 84.85.37 1.1 1.35 2 2.39 3.48C1140 851.66 1152 811.46 1166 771.87c1-2.89 2.51-5.62 3.78-8.42 3.19 4.43 7 1.56 10.14.39 31.08-11.43 59.3-27.85 85.25-48.45 14.81-11.76 29.45-23.69 43.63-36.19 1.11-1 2.16-2.32 4.86-1.2-4.44 7.47-8.63 14.95-13.26 22.14-3.88 6-4.44 10.55 3.19 14.17 4.07 1.93 7.41 5.4 13.3 9.85-11.45-3.16-17-11.61-26.91-13.24 3.06 5.15.32 9.12-1.34 13.4-8.06 20.86-13.31 41.85-10.72 64.88 2.84 25.25 28 54.9 60.9 61.54 33.39 6.75 65.84 1.6 98-7.25 3-1.43 5.85-3.26 8.74-4.93 3.34-1.93 7.42-2.06 9.88 1.82 2.35 3.71-.17 6.4-2.79 8.78-3.26 3-7.38 4.49-11.16 6.54-18.57 12.64-38.44 23.51-54 40.22-9 9.66-16.64 20.32-24 31.21-2.08 3.07-3.9 6.43-3.74 10.45.09 2.21 0 5.23-1.59 6.19-9.07 5.35-7.54 14.67-9.14 22.82-.84 4.29-2.06 8.07-7.73 6.92q-54.65-12.88-109.3-25.79c-2.44-.58-4.78-1.5-8.52-.46 29.05 22 57.34 43.93 79.79 74.61h-97.33c15.07 14.24 29.33 25.67 40.92 39.7z" fill="#fefb94"/><path class="cls-6" d="M1067.74 841c-2.66-13-.75-26.17-1.1-39.25-.34-12.51-.37-25.05 0-37.56.22-6.65-1.43-11.46-7.8-14.38-5.72-2.63-9-9.66-17.12-9.2 4.38-6.32 11.15-9.12 16.65-13.38-1.23-2-2.38-.66-3.18-.21-15.19 8.38-16.09 8.14-27.39-6.49-18.47-23.91-32.78-50.18-44.53-77.93a15.27 15.27 0 0 0-5.07-7c1.63 8.6 3.49 17.16 4.83 25.8 4.6 29.54 4.53 58.72-9.07 86.26-10.46 21.18-27.28 35.41-49.69 43q-40.64-17.42-81.27-34.85-24-10.28-48-20.49a10.33 10.33 0 0 1 4.38-4.71c33.6-18.5 38.52-48.15 25.38-81.1-9.46-23.51-24.52-43.51-40.61-62.8a7 7 0 0 1-1.85-4.77c7.46 4.66 14.83 9.48 22.4 13.95 46.84 27.63 97.44 41.17 151.71 36.43 35.92-3.14 69.12-15 95.44-41.5 2.35-2.37 4.16-5.64 8.08-5.94 10.8 85.12 7.79 170.68 7.81 256.12z"/><path class="cls-2" d="M1157.64 635.58c-2.94 1.37-2.51 3.9-3.24 5.83-1.88 4.92-5.75 7.35-10.68 8-5.41.74-8.88-2.62-11.5-6.68-3.82-5.92-.82-11.48 1.71-16.84 1.87-4 5.57-4.73 9.56-4.41 2.62.21 5.88 1 4.86 4.16-1.46 4.47-2.89-.27-4.41-.63-3.81-.9-4.79 2.06-5.92 4.57-2.45 5.42-2 10.42 2.83 14.38 2.6 2.14 5.26 1.57 7.59-.65s3.36-5.15 4.22-8.22c.69-2.45-1.47-7.57 4.07-6.18 3.74.94 8.1 2.71 6.26 8.48a4.24 4.24 0 0 0 1 4.87c4.52-3.08 2-15.53 11.76-11 7.16 3.33-.5 8.36-1 12.76 3.67 1.24 4.59-1.56 5.55-3.61 2-4.18 2.77-9.56 9-9.33 7.3.28 3.08 7.81 7.46 11.86 2-7 2.21-12.31-4.58-16.1 10.61-6 10.61-6 21-.65-12.2 1.91-10.1 9.46-8.88 17.08 2.5-.22 2.44-1.61 2.87-2.74 1.09-2.83-1.72-7.69 3.54-8.21 2.14-.21 2.35 2.85 1.81 4.53-1.16 3.65 3.88 10.33-4.78 10.45-14.51.19-29 .49-43.53.36-8.21-.08-4.65-7.89-6.57-12.08z"/><path class="cls-8" d="M1136.53 1616.54c-4.72-9.46-10.35-16.63-10.33-26.36 0-9.55 4.05-16.21 11.68-21.06 17.22-10.93 49.29-8.9 66.46 4.67-12.91 4.53-21.77 12.66-24.43 26.06-2.47 12.49-.06 24.32 6.07 35.33 4.62 8.31-1.6 7.18-6.1 7.19-28.22.06-56.35 1.3-83.93 7.81-22.53 5.32-43.92 13-58.38 32.83-3 4.14-4.79 2-6.83-1.09-12.44-19.14-7-40.42 13.22-50.94 15.84-8.23 33.09-11.06 50.6-12.86a281.51 281.51 0 0 1 41.97-1.58z"/><path class="cls-6" d="M1341.28 973.52c5.19-4.41 4.06-10.92 4.76-16.47.76-6.06-4.54-.86-6.72-2.16.75-2.61 3.19-2.92 4.85-4.09 6.06-4.3 9.15-9.44 11.57-17.16 4.65-14.88 15.83-26.62 26.34-38.22 16.12-17.8 36.1-30.51 56.46-42.71 8.08.85 16.62 4.2 22.51-5.18 1.18-1.88 4.46-2 6-.31 9.31 10.12 21.71 6.31 32.54 6.25 11.9-.06 24.13 1.44 36-2.67 6.56-2.27 9.18 5.91 14.36 8-1.48 4.56-5.89 5.32-9.44 7-38.35 17.74-74.31 38.87-102 71.75-13 15.45-23.63 32.24-28.38 52.21-18.64-2.05-36.31-8.48-54.57-12.25-4.84-1.05-9.56-2.66-14.28-3.99z"/><path class="cls-6" d="M1549.93 858.79c-3.12-.31-6.28-.43-8.74-2.83-1.36-1.33-2.73-2.39-4.95-1.56-21.11 7.88-43 2-64.5 3.54-5.27.38-4.8-5.7-7-8.84-8.75 13.26-12.83 13.79-26.19 3.59 5.1-3.3 11-5.4 16.35-11.57l-18 2.37 4.12-7.28c4.49-7.94 12.12-9.55 19.54-4.37 4.81 3.36 11.16 10 14.52 8.79 6.8-2.45 13 0 19.3-1.25 1.52-.3 3.2 0 4.65-.4 1.64-.51 9.51 3.37 3-3.72 3-1.8 6.67-5.64 8.8-4.92 2.88 1 10.08-.31 8.34 6-1.25 4.5 1.1 3.45 3 3.28 7.63-.72 14.8 3.51 23.15-.07 5-2.14 4.1 5 4.21 8.85 0 1.75-5.33 6.13 2.82 4.42 3.73-.78-1 3.62-.85 5.78q-.85.11-1.57.19z"/><path class="cls-8" d="M1945.83 500.68c-19.65 3.9-38.34 9.51-55.44 19.81-17.46 10.52-29.87 25.36-38.1 44.52-10.22-25.86 1.32-50 19.63-59.48 23.86-12.28 48.71-11.46 73.91-4.85z"/><path class="cls-2" d="M1829.08 1450.71c-12.86.86-7.9 9.5-8.19 16.3 3.81-.7 2.82-3.36 3.22-5.29.47-2.27-.5-6 3-5.77 3.29.18 2.4 3.77 2.66 6.12.2 1.72-.26 3.64 1.36 5 4.79-2.53-.59-10.31 5.11-10.61 4.17-.22 1.53 6.53 4 9 5.35-1.9-2.51-11.42 5.38-9.67 14 3.11 13.8 3.9 10.52 11.74 2.48 1.53 3.64-2 6.25-1.55a7.82 7.82 0 0 1-.74 2.42c-1.38 1.83-3.7 3.73-5.54 2.83-11.83-5.8-23 3.11-34.71 1.05-12.32-2.18-24.8-1.48-37.23-.8-7.14.39-9.57-3.41-9-9.86.21-2.26-.7-5.94 2.92-5.77 3.24.15 1.76 3.28 1.57 5.28a4.83 4.83 0 0 0 1.56 4.71c3-4.53 2.1-14.27 10.32-11.39s-.08 8.73.08 13.33c3.59 1 4.64-1.67 5.43-3.84 1.73-4.75 2.88-10.55 9.3-9.92 6.64.65 3.35 7.76 6.05 12.3 3.45-4.21 3.58-9.6 1.55-12.1-4.11-5.05 0-7.49 2-10 3.5-4.24 4.74 2 7.47 2.42 2.1.29 4.58.29 5.66 4.07z"/><path d="M722.18 1064.8c25.88-5.39 52-8.12 78.46-6.9a33.34 33.34 0 0 1 13.44 3.29c-23.78 13.47-47.52 27-72.68 37.82-3.4-13.1-7.53-25.78-19.22-34.21z" fill="#fcb23e"/><path class="cls-4" d="M590.53 1057.78c-14.67 2.66-29.49.82-44.24 1.41-4.17.17-4.3-4.7-7.69-10-.82 2.49-.94 3.91-1.66 4.89-3.51 4.74-7.61 8.67-14.18 6.35-5.54-2-9-6.19-8.86-12 .13-6.49 2.48-12.3 8.83-15.49 3.5-1.76 6.75-1.77 8.72 2.2a4.05 4.05 0 0 1-.17 3.46c-.93 1.36-1.94.28-3-.53-5.53-4.36-6.29 1.42-7.65 4.14-2.82 5.63-.57 10.57 4.16 13.93 3.66 2.6 6.76.17 8.36-3.2 1.84-3.89 2.95-8.12 4.39-12.23 8.34.19 8.92 6.29 8.62 15 4.12-6.36 4.49-15.21 12.25-12.1 6.76 2.71.74 7.79-.31 11.8 3.1 1 4.56-1 5.15-2.92 1.5-5 3.21-10.32 9.33-10.12 7.11.23 3.36 7.63 6.33 11.65a7.29 7.29 0 0 0 1.64-9.06c-3.79-5.7-1.39-10.41 2.88-12.42 4.61-2.18 7.67 3.61 11.89 5.33-2.45 3.76-7.59-2.31-7.93 2.68-.4 5.77-3.66 12.54 3.07 17.2z"/><path class="cls-4" d="M590.5 1057.75a13.45 13.45 0 0 1 0-2.81c.73-3.72-2.14-9.89 2.76-10.6s1.38 6.38 4.25 9c4.28-1.67.19-8.77 4.7-8.79 5 0 2 6.37 4.5 9 .68-.32 1.43-.42 1.65-.82 1.39-2.47.64-8.07 1.4-7.61 5.23 3.19 8.63-3.76 12.88-1.88 7.69 3.4.44 7.57 0 11.75l5.77-1.6c-.69 4.69-4.43 7.82-6.89 6-8.23-6.08-15.46 0-23 .6-3.15.24-5.4-1.06-7.95-2.11z"/><path class="cls-8" d="M643.13 75.49c-16.64 34.28-17.65 66.25 4.14 98.89-18.51-5.5-32 .46-45.25 9.27-11.38 7.56-25 11.38-35.62 20.42-3 2.53-4.55.1-5.75-2.15-5.85-11-9.71-22.54-7.35-35.12 1.56-8.33 7.12-13.54 15.13-16.46 13.13-4.8 26-2.54 38.67 1.38 6.7 2.07 9.35.05 7.69-6.25-7.71-29.29 6.21-50.06 28.34-69.98z"/><path class="cls-5" d="M531.51 216.49c-4.94-4.61-8.51-4.31-10.86 1.5-2.51 6.21-1.14 11.91 4.48 14.53 6.36 3 8.16-3.2 10.45-7.65 1.41-2.76-2-8.85 4.65-8 5.32.71 6.85 4.54 5.61 9.72-.43 1.81.23 3.74 2.63 5.69.87-3.28 1.31-6.39 2.53-9.15s3.2-6.06 7-4.57 3.25 4.79 1.7 7.91c-.82 1.65-1.58 3.32-2.69 5.66 4.68.35 6.21-2 7-5.21 1.12-4.55 3.22-8.86 8.43-8.52 5.71.37 4.5 5.73 5.18 9.56.14.77.86 1.43 1.7 2.73 2.67-3.41 2-6.94 1.64-10.08-.67-6-.3-9 1.5-10.95 5-5.47 6.65 4.31 10.91 2.4.32-.14 1.26 1.09 2.12 1.87-1.6 4.23-8.95-2.61-8.66 4.56.16 3.88-1 7.93 1.25 11.86 4.45-2.42.61-7.69 4.69-10.16 4.83 2.25 1.56 8.05 4.48 11.17 2.86 0 2.07-2.37 2.52-4 .68-2.41-1.27-6.85 2.81-6.64 3.43.18 2.5 4.35 2.64 7.07 0 .9.23 1.8.4 3.14 1-.58 2.42-1.11 2.37-1.39-1.87-10.66 7.56-8.29 12.46-10.08 4.06-1.48 6.3 1.66 4.83 6.19-.75 2.29-3.74 3.42-3.37 6.29 2.9 2.37 3.83-2.86 6.58-1.47-.32 4-4 6.23-6.27 4.93-11.53-6.65-22.57 1.84-34 .33-11.26-1.48-22.92-.93-34.32-.12-9.27.66-13.88-2.05-12.2-13.59-5.72 8.12-8.76 17.95-19.72 14.12-6.19-2.16-9.16-7.83-8.08-14.38 1-6.2 4.4-11.16 11.31-12.1 3.73-.4 6.79.58 6.3 6.83z"/><path class="cls-3" d="M81.82 1086.3c1.6-15.86 8.81-28.34 23.45-33.59 21.92-7.86 40.75 1.09 60 15.22-16.38-.76-30.86-2-45.16.07s-27.97 6.64-38.29 18.3z"/><path d="M1421.67 1206.36c-9.81-4-17.92-10.5-26-17.12 9 5.21 18.79 9.21 26 17.05z" fill="#715693"/><path class="cls-4" d="M1136.32 1457.62c1.09-4 2.58-10.06 6.27-8.8s10.75 3.09 9.83 10.06c-.62 4.7-2.41 9.58-8.23 9.47-6.74-.13-6.63-6.12-7.87-10.73z"/></svg>
